<svg version="1.1" id="Layer_1" xmlns="http://www.w3.org/2000/svg" xmlns:xlink="http://www.w3.org/1999/xlink" x="0px" y="0px"
	 width="100%" viewBox="0 0 500 500" enable-background="new 0 0 500 500" xml:space="preserve">
<path fill="#000000" opacity="1.000000" stroke="none" 
	d="
M290.000000,501.000000 
	C193.333359,501.000000 97.166710,501.000000 1.000051,501.000000 
	C1.000034,334.333405 1.000034,167.666794 1.000017,1.000141 
	C167.666565,1.000094 334.333130,1.000094 500.999756,1.000047 
	C500.999847,167.666519 500.999847,334.333038 500.999939,500.999786 
	C430.833344,501.000000 360.666656,501.000000 290.000000,501.000000 
M75.157013,203.358658 
	C75.157013,235.141891 75.157013,266.925140 75.157013,298.708374 
	C75.627678,298.733551 76.098335,298.758759 76.569000,298.783936 
	C76.569000,297.106445 76.569000,295.428986 76.569000,293.751495 
	C76.568993,265.301300 76.560204,236.851105 76.589722,208.400940 
	C76.591591,206.604706 76.892044,204.808746 77.982079,203.077423 
	C134.877213,203.077423 191.772339,203.077423 248.667465,203.077423 
	C247.739365,202.106705 246.787521,201.929016 245.835648,201.928787 
	C190.343292,201.915497 134.850922,201.910614 79.358604,201.960861 
	C78.221085,201.961884 77.084145,202.620010 75.157013,203.358658 
M422.157257,250.500076 
	C422.157257,235.749634 422.157257,220.999191 422.157257,206.303772 
	C307.562500,206.303772 193.547867,206.303772 79.540527,206.303772 
	C79.540527,236.331985 79.540527,266.052643 79.540527,295.713745 
	C193.891571,295.713745 307.926666,295.713745 422.157257,295.713745 
	C422.157257,280.783844 422.157257,266.141968 422.157257,250.500076 
M386.500000,203.010818 
	C399.262207,203.010818 412.024445,203.010818 425.216949,203.010818 
	C425.216949,235.131134 425.216949,266.701508 425.216949,298.271881 
	C425.368744,298.269623 425.520508,298.267334 425.672302,298.265076 
	C425.672302,266.224091 425.672302,234.183121 425.672302,202.324677 
	C375.793945,202.324677 326.225525,202.324677 276.657074,202.324677 
	C276.657471,202.553391 276.657867,202.782104 276.658264,203.010818 
	C312.938843,203.010818 349.219421,203.010818 386.500000,203.010818 
z"/>
<path fill="#FEFEFE" opacity="1.000000" stroke="none" 
	d="
M422.157257,251.000092 
	C422.157257,266.141968 422.157257,280.783844 422.157257,295.713745 
	C307.926666,295.713745 193.891571,295.713745 79.540527,295.713745 
	C79.540527,266.052643 79.540527,236.331985 79.540527,206.303772 
	C193.547867,206.303772 307.562500,206.303772 422.157257,206.303772 
	C422.157257,220.999191 422.157257,235.749634 422.157257,251.000092 
M179.500000,211.998398 
	C148.417267,211.998398 117.334526,211.998398 86.197662,211.998398 
	C86.197662,238.225067 86.197662,263.947388 86.197662,289.643921 
	C141.094864,289.643921 195.756165,289.643921 250.295166,289.643921 
	C250.295166,263.583435 250.295166,237.882217 250.295166,212.242752 
	C249.599625,212.122681 249.272339,212.016861 248.944977,212.016693 
	C226.129990,212.005203 203.314987,212.002151 179.500000,211.998398 
M306.601868,250.641739 
	C306.659607,249.750320 306.435211,248.706970 306.820251,247.991791 
	C309.614166,242.802414 307.686401,237.884964 301.946625,237.221222 
	C296.962433,236.644821 291.858826,237.101288 286.781769,237.101288 
	C286.781769,245.952164 286.781769,254.356201 286.781769,262.957977 
	C291.663849,262.957977 296.315216,263.214111 300.927521,262.898560 
	C308.019806,262.413269 310.610138,257.349091 306.601868,250.641739 
M378.441376,246.123413 
	C377.136444,246.054092 375.831512,245.984756 374.248169,245.900650 
	C374.248169,242.874481 374.248169,240.073959 374.248169,237.063934 
	C371.717194,237.063934 369.477234,237.063934 367.147858,237.063934 
	C367.147858,245.796951 367.147858,254.326996 367.147858,262.872437 
	C369.593536,262.872437 371.726929,262.872437 374.266846,262.872437 
	C374.266846,259.651093 374.266846,256.552002 374.266846,253.333130 
	C377.109497,253.333130 379.539459,253.333130 382.173035,253.333130 
	C382.317413,256.632782 382.452179,259.712402 382.585938,262.769043 
	C385.207184,262.769043 387.462097,262.769043 389.675262,262.769043 
	C389.675262,253.996552 389.675262,245.467056 389.675262,237.222290 
	C387.097473,237.222290 384.860138,237.222290 382.373383,237.222290 
	C382.373383,239.564438 382.706024,241.621582 382.243652,243.481049 
	C381.982849,244.529892 380.412842,245.253159 378.441376,246.123413 
M329.429413,240.894348 
	C328.274261,239.547424 327.323029,237.418655 325.912506,237.050705 
	C324.133789,236.586685 320.657440,236.972260 320.198120,238.006180 
	C316.623169,246.054077 313.597961,254.346161 310.194519,263.098419 
	C314.217621,262.603943 317.617920,264.378082 320.013245,259.962402 
	C320.674866,258.742767 327.696106,258.846222 328.379395,260.143707 
	C330.952759,265.029999 334.462616,262.308014 337.952759,262.886414 
	C335.106720,255.466064 332.447998,248.534119 329.429413,240.894348 
M347.180115,255.418854 
	C347.180115,257.862213 347.180115,260.305603 347.180115,262.781555 
	C349.999451,262.781555 352.254181,262.781555 355.059845,262.781555 
	C355.059845,256.348816 355.059845,250.139343 355.059845,244.008362 
	C357.902802,243.882202 360.184387,243.780945 362.592957,243.674072 
	C362.592957,241.292465 362.592957,239.239700 362.592957,237.097275 
	C354.739655,237.097275 347.168701,237.097275 339.509521,237.097275 
	C339.509521,239.418777 339.509521,241.468109 339.509521,243.668030 
	C342.205811,243.828735 344.600647,243.971466 347.180115,244.125198 
	C347.180115,247.827393 347.180115,251.137100 347.180115,255.418854 
z"/>
<path fill="#F9F9F9" opacity="1.000000" stroke="none" 
	d="
M386.000000,203.010818 
	C349.219421,203.010818 312.938843,203.010818 276.658264,203.010818 
	C276.657867,202.782104 276.657471,202.553391 276.657074,202.324677 
	C326.225525,202.324677 375.793945,202.324677 425.672302,202.324677 
	C425.672302,234.183121 425.672302,266.224091 425.672302,298.265076 
	C425.520508,298.267334 425.368744,298.269623 425.216949,298.271881 
	C425.216949,266.701508 425.216949,235.131134 425.216949,203.010818 
	C412.024445,203.010818 399.262207,203.010818 386.000000,203.010818 
z"/>
<path fill="#FEFEFE" opacity="1.000000" stroke="none" 
	d="
M77.053589,203.012665 
	C76.892044,204.808746 76.591591,206.604706 76.589722,208.400940 
	C76.560204,236.851105 76.568993,265.301300 76.569000,293.751495 
	C76.569000,295.428986 76.569000,297.106445 76.569000,298.783936 
	C76.098335,298.758759 75.627678,298.733551 75.157013,298.708374 
	C75.157013,266.925140 75.157013,235.141891 75.825706,203.254364 
	C76.680794,203.104263 76.867195,203.058456 77.053589,203.012665 
z"/>
<path fill="#D5D5D5" opacity="1.000000" stroke="none" 
	d="
M77.517838,203.045044 
	C76.867195,203.058456 76.680794,203.104263 76.220673,203.060822 
	C77.084145,202.620010 78.221085,201.961884 79.358604,201.960861 
	C134.850922,201.910614 190.343292,201.915497 245.835648,201.928787 
	C246.787521,201.929016 247.739365,202.106705 248.667465,203.077423 
	C191.772339,203.077423 134.877213,203.077423 77.517838,203.045044 
z"/>
<path fill="#020202" opacity="1.000000" stroke="none" 
	d="
M180.000000,211.998398 
	C203.314987,212.002151 226.129990,212.005203 248.944977,212.016693 
	C249.272339,212.016861 249.599625,212.122681 250.295166,212.242752 
	C250.295166,237.882217 250.295166,263.583435 250.295166,289.643921 
	C195.756165,289.643921 141.094864,289.643921 86.197662,289.643921 
	C86.197662,263.947388 86.197662,238.225067 86.197662,211.998398 
	C117.334526,211.998398 148.417267,211.998398 180.000000,211.998398 
M124.970924,240.302200 
	C122.968796,245.593948 120.966667,250.885696 118.557663,257.252838 
	C116.388756,250.429916 114.755257,244.854492 112.774307,239.405350 
	C112.346352,238.228165 110.667610,237.505676 109.564995,236.573746 
	C109.260811,236.947830 108.956627,237.321915 108.652443,237.695999 
	C111.019592,244.946671 113.319023,252.220779 115.814621,259.426971 
	C116.278740,260.767120 117.531860,261.834076 118.420853,263.027100 
	C119.391327,261.902252 120.729996,260.929382 121.267876,259.626007 
	C123.472733,254.283188 125.433548,248.839645 127.918365,242.288483 
	C130.571243,249.305084 132.656631,255.039886 134.954666,260.688171 
	C135.348450,261.656036 136.557983,262.468414 137.581604,262.906433 
	C137.932648,263.056610 139.233398,261.966034 139.478867,261.233948 
	C142.145462,253.281006 144.688385,245.286575 147.265015,237.303467 
	C146.519363,236.953644 145.773712,236.603836 145.028061,236.254013 
	C140.930862,242.048035 140.490479,249.720093 137.025650,256.894958 
	C134.732574,250.674698 132.819824,245.242905 130.690323,239.897446 
	C130.216751,238.708679 128.979828,237.824036 128.094376,236.799377 
	C127.123634,237.713394 126.152893,238.627426 124.970924,240.302200 
M225.856384,260.733490 
	C223.234039,256.981293 220.611694,253.229111 218.073700,249.597610 
	C221.028473,245.282104 223.714767,241.358734 227.005737,236.552231 
	C219.894821,237.068314 219.662277,243.988571 215.900635,246.138321 
	C211.724289,243.610733 211.998123,236.593155 204.831650,236.904053 
	C208.027908,241.535995 210.813400,245.572678 213.588638,249.594482 
	C210.497528,254.111267 207.624695,258.309113 204.330200,263.123108 
	C211.823105,263.010681 211.583832,255.505676 216.248337,252.847504 
	C218.267273,255.765839 220.226715,258.801605 222.406845,261.669647 
	C223.622711,263.269135 225.192856,264.439453 225.856384,260.733490 
M167.171677,248.062317 
	C164.231827,248.062317 161.291962,248.062317 158.355682,248.062317 
	C158.355682,245.072937 158.355682,242.665787 158.355682,239.934250 
	C161.913040,239.934250 165.220428,240.045944 168.510101,239.853897 
	C169.309250,239.807266 170.050034,238.760681 170.817657,238.173889 
	C170.089203,237.723663 169.370880,236.904083 168.630630,236.883789 
	C164.180588,236.761780 159.725525,236.823212 155.146591,236.823212 
	C155.146591,245.742340 155.146591,254.264267 155.146591,263.004730 
	C159.932098,263.004730 164.409973,263.085510 168.879288,262.926300 
	C169.635483,262.899353 170.354858,261.839294 171.091248,261.256592 
	C170.372086,260.819641 169.665787,260.032074 168.931564,260.005127 
	C165.354874,259.873749 161.770706,259.945709 158.419403,259.945709 
	C158.419403,256.598755 158.419403,254.014801 158.419403,251.147003 
	C161.714539,251.147003 164.692764,251.233627 167.659439,251.086792 
	C168.412659,251.049515 169.129105,250.269485 169.862457,249.830719 
	C169.270477,249.243637 168.678497,248.656555 167.171677,248.062317 
M189.977921,250.506958 
	C189.977921,247.071793 189.977921,243.636627 189.977921,239.944443 
	C192.787842,239.944443 195.090637,240.037201 197.375381,239.875259 
	C197.906174,239.837646 198.751816,238.942612 198.765915,238.423477 
	C198.779633,237.917435 197.922714,236.944977 197.433273,236.935440 
	C191.462860,236.819214 185.488785,236.793793 179.518829,236.909210 
	C178.946701,236.920288 178.395920,238.034729 177.835236,238.636963 
	C178.384308,239.080658 178.910599,239.869049 179.486511,239.907150 
	C181.738968,240.056152 184.007111,239.968033 186.629150,239.968033 
	C186.629150,247.128494 186.558258,253.738876 186.712891,260.343964 
	C186.733795,261.236847 187.887527,262.103271 188.516708,262.981934 
	C189.003448,262.139862 189.858963,261.319427 189.909927,260.451752 
	C190.084747,257.475311 189.977585,254.482285 189.977921,250.506958 
z"/>
<path fill="#050505" opacity="1.000000" stroke="none" 
	d="
M306.887756,250.924789 
	C310.610138,257.349091 308.019806,262.413269 300.927521,262.898560 
	C296.315216,263.214111 291.663849,262.957977 286.781769,262.957977 
	C286.781769,254.356201 286.781769,245.952164 286.781769,237.101288 
	C291.858826,237.101288 296.962433,236.644821 301.946625,237.221222 
	C307.686401,237.884964 309.614166,242.802414 306.820251,247.991791 
	C306.435211,248.706970 306.659607,249.750320 306.887756,250.924789 
M298.080322,257.350494 
	C299.104187,256.389984 300.128052,255.429474 301.151886,254.468933 
	C299.006927,253.561905 296.861969,252.654861 294.388794,251.609039 
	C293.711884,255.371704 293.128601,257.914276 298.080322,257.350494 
M295.426300,242.242950 
	C294.811096,243.718414 294.195892,245.193863 293.580719,246.669327 
	C294.045898,247.073669 294.511047,247.477997 294.976227,247.882339 
	C296.818115,246.946503 298.659973,246.010681 300.501831,245.074829 
	C299.085205,244.127121 297.668549,243.179428 295.426300,242.242950 
z"/>
<path fill="#060606" opacity="1.000000" stroke="none" 
	d="
M378.936951,246.123260 
	C380.412842,245.253159 381.982849,244.529892 382.243652,243.481049 
	C382.706024,241.621582 382.373383,239.564438 382.373383,237.222290 
	C384.860138,237.222290 387.097473,237.222290 389.675262,237.222290 
	C389.675262,245.467056 389.675262,253.996552 389.675262,262.769043 
	C387.462097,262.769043 385.207184,262.769043 382.585938,262.769043 
	C382.452179,259.712402 382.317413,256.632782 382.173035,253.333130 
	C379.539459,253.333130 377.109497,253.333130 374.266846,253.333130 
	C374.266846,256.552002 374.266846,259.651093 374.266846,262.872437 
	C371.726929,262.872437 369.593536,262.872437 367.147858,262.872437 
	C367.147858,254.326996 367.147858,245.796951 367.147858,237.063934 
	C369.477234,237.063934 371.717194,237.063934 374.248169,237.063934 
	C374.248169,240.073959 374.248169,242.874481 374.248169,245.900650 
	C375.831512,245.984756 377.136444,246.054092 378.936951,246.123260 
z"/>
<path fill="#060606" opacity="1.000000" stroke="none" 
	d="
M329.609344,241.248260 
	C332.447998,248.534119 335.106720,255.466064 337.952759,262.886414 
	C334.462616,262.308014 330.952759,265.029999 328.379395,260.143707 
	C327.696106,258.846222 320.674866,258.742767 320.013245,259.962402 
	C317.617920,264.378082 314.217621,262.603943 310.194519,263.098419 
	C313.597961,254.346161 316.623169,246.054077 320.198120,238.006180 
	C320.657440,236.972260 324.133789,236.586685 325.912506,237.050705 
	C327.323029,237.418655 328.274261,239.547424 329.609344,241.248260 
M324.567047,246.828003 
	C323.390259,248.960373 322.213440,251.092758 320.857941,253.548935 
	C323.439484,253.548935 325.101532,253.548935 327.001892,253.548935 
	C326.220734,251.259354 325.582703,249.389359 324.567047,246.828003 
z"/>
<path fill="#0E0E0E" opacity="1.000000" stroke="none" 
	d="
M347.180115,254.932831 
	C347.180115,251.137100 347.180115,247.827393 347.180115,244.125198 
	C344.600647,243.971466 342.205811,243.828735 339.509521,243.668030 
	C339.509521,241.468109 339.509521,239.418777 339.509521,237.097275 
	C347.168701,237.097275 354.739655,237.097275 362.592957,237.097275 
	C362.592957,239.239700 362.592957,241.292465 362.592957,243.674072 
	C360.184387,243.780945 357.902802,243.882202 355.059845,244.008362 
	C355.059845,250.139343 355.059845,256.348816 355.059845,262.781555 
	C352.254181,262.781555 349.999451,262.781555 347.180115,262.781555 
	C347.180115,260.305603 347.180115,257.862213 347.180115,254.932831 
z"/>
<path fill="#ECECEC" opacity="1.000000" stroke="none" 
	d="
M125.076538,239.921829 
	C126.152893,238.627426 127.123634,237.713394 128.094360,236.799377 
	C128.979828,237.824036 130.216751,238.708679 130.690323,239.897446 
	C132.819824,245.242905 134.732574,250.674698 137.025650,256.894958 
	C140.490479,249.720093 140.930862,242.048035 145.028061,236.254013 
	C145.773712,236.603836 146.519363,236.953644 147.265015,237.303467 
	C144.688385,245.286575 142.145462,253.281006 139.478867,261.233948 
	C139.233398,261.966034 137.932648,263.056610 137.581604,262.906433 
	C136.557983,262.468414 135.348450,261.656036 134.954666,260.688171 
	C132.656631,255.039886 130.571243,249.305084 127.918365,242.288483 
	C125.433548,248.839645 123.472733,254.283188 121.267876,259.626007 
	C120.729996,260.929382 119.391327,261.902252 118.420853,263.027100 
	C117.531860,261.834076 116.278740,260.767120 115.814621,259.426971 
	C113.319023,252.220779 111.019592,244.946671 108.652443,237.695999 
	C108.956627,237.321915 109.260811,236.947830 109.564995,236.573746 
	C110.667610,237.505676 112.346352,238.228165 112.774307,239.405350 
	C114.755257,244.854492 116.388756,250.429916 118.557663,257.252838 
	C120.966667,250.885696 122.968796,245.593948 125.076538,239.921829 
z"/>
<path fill="#ECECEC" opacity="1.000000" stroke="none" 
	d="
M226.043243,261.052795 
	C225.192856,264.439453 223.622711,263.269135 222.406845,261.669647 
	C220.226715,258.801605 218.267273,255.765839 216.248337,252.847504 
	C211.583832,255.505676 211.823105,263.010681 204.330200,263.123108 
	C207.624695,258.309113 210.497528,254.111267 213.588638,249.594482 
	C210.813400,245.572678 208.027908,241.535995 204.831650,236.904053 
	C211.998123,236.593155 211.724289,243.610733 215.900635,246.138321 
	C219.662277,243.988571 219.894821,237.068314 227.005737,236.552231 
	C223.714767,241.358734 221.028473,245.282104 218.073700,249.597610 
	C220.611694,253.229111 223.234039,256.981293 226.043243,261.052795 
z"/>
<path fill="#F9F9F9" opacity="1.000000" stroke="none" 
	d="
M167.629089,248.065903 
	C168.678497,248.656555 169.270477,249.243637 169.862457,249.830719 
	C169.129105,250.269485 168.412659,251.049515 167.659439,251.086792 
	C164.692764,251.233627 161.714539,251.147003 158.419403,251.147003 
	C158.419403,254.014801 158.419403,256.598755 158.419403,259.945709 
	C161.770706,259.945709 165.354874,259.873749 168.931564,260.005127 
	C169.665787,260.032074 170.372086,260.819641 171.091248,261.256592 
	C170.354858,261.839294 169.635483,262.899353 168.879288,262.926300 
	C164.409973,263.085510 159.932098,263.004730 155.146591,263.004730 
	C155.146591,254.264267 155.146591,245.742340 155.146591,236.823212 
	C159.725525,236.823212 164.180588,236.761780 168.630630,236.883789 
	C169.370880,236.904083 170.089203,237.723663 170.817657,238.173889 
	C170.050034,238.760681 169.309250,239.807266 168.510101,239.853897 
	C165.220428,240.045944 161.913040,239.934250 158.355682,239.934250 
	C158.355682,242.665787 158.355682,245.072937 158.355682,248.062317 
	C161.291962,248.062317 164.231827,248.062317 167.629089,248.065903 
z"/>
<path fill="#F9F9F9" opacity="1.000000" stroke="none" 
	d="
M189.977921,251.001266 
	C189.977585,254.482285 190.084747,257.475311 189.909927,260.451752 
	C189.858963,261.319427 189.003448,262.139862 188.516708,262.981934 
	C187.887527,262.103271 186.733795,261.236847 186.712891,260.343964 
	C186.558258,253.738876 186.629150,247.128494 186.629150,239.968033 
	C184.007111,239.968033 181.738968,240.056152 179.486511,239.907150 
	C178.910599,239.869049 178.384308,239.080658 177.835236,238.636963 
	C178.395920,238.034729 178.946701,236.920288 179.518829,236.909210 
	C185.488785,236.793793 191.462860,236.819214 197.433273,236.935440 
	C197.922714,236.944977 198.779633,237.917435 198.765915,238.423477 
	C198.751816,238.942612 197.906174,239.837646 197.375381,239.875259 
	C195.090637,240.037201 192.787842,239.944443 189.977921,239.944443 
	C189.977921,243.636627 189.977921,247.071793 189.977921,251.001266 
z"/>
<path fill="#ECECEC" opacity="1.000000" stroke="none" 
	d="
M297.682983,257.359314 
	C293.128601,257.914276 293.711884,255.371704 294.388794,251.609039 
	C296.861969,252.654861 299.006927,253.561905 301.151886,254.468933 
	C300.128052,255.429474 299.104187,256.389984 297.682983,257.359314 
z"/>
<path fill="#ECECEC" opacity="1.000000" stroke="none" 
	d="
M295.839111,242.237335 
	C297.668549,243.179428 299.085205,244.127121 300.501831,245.074829 
	C298.659973,246.010681 296.818115,246.946503 294.976227,247.882339 
	C294.511047,247.477997 294.045898,247.073669 293.580719,246.669327 
	C294.195892,245.193863 294.811096,243.718414 295.839111,242.237335 
z"/>
<path fill="#D5D5D5" opacity="1.000000" stroke="none" 
	d="
M324.755859,247.173691 
	C325.582703,249.389359 326.220734,251.259354 327.001892,253.548935 
	C325.101532,253.548935 323.439484,253.548935 320.857941,253.548935 
	C322.213440,251.092758 323.390259,248.960373 324.755859,247.173691 
z"/>
</svg>